<svg xmlns="http://www.w3.org/2000/svg" width="500" height="720" viewBox="0 -2 1000 1445" xmlns:xlink="http://www.w3.org/1999/xlink"><defs><style>.str0,.str1{stroke:#000;stroke-width:2}.str0{stroke-width:4}.str3,.str4{stroke:#000;stroke-width:6}.str4{stroke-width:1}.fil3{fill:none}.fil0{fill:#fff212}.fil2{fill:red}.fil5{fill:#000}.fil7{fill:#00a859}.fil8{fill:#d2d3d5}.fil9{fill:#0098da}</style><path id="raio" stroke="#000" stroke-width="3" d="M-100 0h200"/><g id="sol"><circle fill="#FFF212" r="100"/><use xlink:href="#raio"/><use xlink:href="#raio" transform="rotate(4.5)"/><use xlink:href="#raio" transform="rotate(9)"/><use xlink:href="#raio" transform="rotate(13.5)"/><use xlink:href="#raio" transform="rotate(18)"/><use xlink:href="#raio" transform="rotate(22.5)"/><use xlink:href="#raio" transform="rotate(27)"/><use xlink:href="#raio" transform="rotate(31.5)"/><use xlink:href="#raio" transform="rotate(36)"/><use xlink:href="#raio" transform="rotate(40.5)"/><use xlink:href="#raio" transform="rotate(45)"/><use xlink:href="#raio" transform="rotate(49.5)"/><use xlink:href="#raio" transform="rotate(54)"/><use xlink:href="#raio" transform="rotate(58.5)"/><use xlink:href="#raio" transform="rotate(63)"/><use xlink:href="#raio" transform="rotate(67.5)"/><use xlink:href="#raio" transform="rotate(72)"/><use xlink:href="#raio" transform="rotate(76.5)"/><use xlink:href="#raio" transform="rotate(81)"/><use xlink:href="#raio" transform="rotate(85.5)"/><use xlink:href="#raio" transform="rotate(90)"/><use xlink:href="#raio" transform="rotate(94.5)"/><use xlink:href="#raio" transform="rotate(99)"/><use xlink:href="#raio" transform="rotate(103.5)"/><use xlink:href="#raio" transform="rotate(108)"/><use xlink:href="#raio" transform="rotate(112.5)"/><use xlink:href="#raio" transform="rotate(117)"/><use xlink:href="#raio" transform="rotate(121.5)"/><use xlink:href="#raio" transform="rotate(126)"/><use xlink:href="#raio" transform="rotate(130.5)"/><use xlink:href="#raio" transform="rotate(135)"/><use xlink:href="#raio" transform="rotate(139.5)"/><use xlink:href="#raio" transform="rotate(144)"/><use xlink:href="#raio" transform="rotate(148.5)"/><use xlink:href="#raio" transform="rotate(153)"/><use xlink:href="#raio" transform="rotate(157.5)"/><use xlink:href="#raio" transform="rotate(162)"/><use xlink:href="#raio" transform="rotate(166.5)"/><use xlink:href="#raio" transform="rotate(171)"/><use xlink:href="#raio" transform="rotate(175.5)"/><circle fill="#FFF212" r="55"/></g></defs><path class="fil0 str0" d="M557.18 1383.174c29.6-15.83 49.475-42.62 62.858-78.34l19.87 6.496-10.138-49.927-46.23 21.919 18.654 10.96c-24.737 60-49.474 81.18-75.834 62.5-12.977 0-16.221-88-17.844-200.11h36l29.6 53.578 163.429 42.214 39.336 58.856c37.3-21.1 68.941-50.737 97.328-86l-44.2-44.242 24.737-51.55c15 8.523 25.955 4.465 32.443-13.8 8.11 3.246 15 1.217 20.682-6.9l47.852-87.675c6-15.83 1.623-22.324-8.11-25.573-1.622-8.524-6.488-12.988-15-13.8-6-7.712-14.194-10.148-24.737-8.93-48.233-73.957 152.15-257.622 73.8-355.976l-70.97-86c-21.897-23.136-45.419-21.919-70.156 13.8-25.143-26.788-22.71-53.173 7.3-79.15l-36-36.532c-68.28 48.34-130.883-8.275-51.5-52.767-47.462-43.433-126.2-88.232-190.352-56.13-5.677-11.773-18.497-12.873-30.663-7.596-4.461-10.148-10.544-10.554-18.25-4.871-5.27-5.277-11.76-7.3-21-6.9-9.327-.4-15.816 1.623-21 6.9-7.7-5.682-13.788-5.277-18.249 4.87-12.165-5.276-22.3-4.87-27.981 6.9-64.114-32-145.56 13.383-193 56.827 82.164 46 18.191 102.1-51.5 52.767l-36 36.532c30 25.977 32.442 52.361 7.299 79.15-24.737-35.719-48.258-36.937-70.156-13.8l-70.968 86c-80.326 100.84 125.96 276 73.8 355.976-10.544-1.218-18.655 1.218-24.737 8.93-8.516.812-13.383 5.276-15 13.8-9.733 3.248-14.194 9.742-8.11 25.572l47.851 87.675c5.678 8.119 12.572 10.148 20.683 6.9 6.489 18.266 17.438 22.324 32.442 13.8l24.737 51.55-44.2 44.243c29.152 36.547 62.13 68.352 97.328 86l39.336-58.856 163.43-42.214 29.6-53.579h36c-1.623 112-4.867 200.11-17.845 200.11-26.358 18.671-51-2.435-75.834-62.5l18.655-10.96-46.23-21.918-10.14 49.926 19.873-6.494c13.381 35.718 33.252 62.5 62.857 78.339 25.953 10.959 57.077 56.826 57.077 56.826s31.123-45.867 57.077-56.826z"/><ellipse class="str0" cx="500" cy="750" rx="312" ry="355" fill="#fff"/><ellipse class="fil0 str1" cx="500" cy="750" rx="245" ry="275"/><path class="fil0 str3" d="M73 1067.27c5.676-3.25 13-3.25 15 .4 2.433 4-1.218 10.148-6.894 13.8-6 3.247-12.978 3.247-15-.813-2.433-4 .81-9.741 6.894-13.394zm-6.489-14.2c5.678-3.247 12.977-3.247 15 .4 2.433 4-1.217 10.147-6.894 13.8-6 3.248-12.977 3.248-15-.811-2.433-4 .811-9.742 6.894-13.395zm867.838 14.2c-5.678-3.247-12.978-3.247-15 .4-2.434 4 1.217 10.148 6.894 13.8 6 3.247 12.977 3.247 15-.813 2.434-4-.81-9.741-6.893-13.394zm6.488-14.2c-5.678-3.247-12.977-3.247-15 .4-2.433 4 1.216 10.147 6.894 13.8 6 3.248 12.977 3.248 15-.811 2.433-4-.811-9.742-6.894-13.395z"/><path class="str1" d="M129.977 119.334c59.2 4 119.226 6 186.545-5.682 36.9-5.277 69.346 5.682 98.95 31.254 18.655 2.436 34.876 10.553 49.88 25.979 39.743 7.71 69.346-13.8 90.433-62.915 23.116-32 49.475-49.114 80.296-51.956 74.618-10.553 133.825-32.472 191-56 4.461 21.919-2.433 43.431-34.469 64.539-32 40.59-64.885 60.885-98.95 63.32-20.276 28-44.6 44.244-71.78 48.7-12.57 9.742-12.57 18.266 0 25.977l67.32 24.76c21.152 7.778 14.193 18.267-2.84 22.731-37.714 5.682-78.673.812-118.82-5.682-22.71-2-32 3.653-27.576 17.453l10.138 5.683-5.677 7.3c2.838 22.732 29.6 24.761 23.115 40.185l-38.931-2.842c-5.678-13.8 11.355-15.829 1.621-31.659l-8.92 2.84-15.411-18.67 1.216 10.147c-12.165-14.2-23.52-17-34.47-14.612v17.453h-7.3l-1.216 15.83c8.517.812 11.762 6.496 14.195 12.99l-42.987 15.83c-1.216-12.99 3.244-21.1 12.977-24.76l4.461-18.672h-7.3v-15.83c-41.363-3.654-68.94-18.266-67.318-56-17.438 5.276-34 2.435-50.285-7.3-18.655 5.276-37.3 2.435-55.963-7.3-31.226-1.218-54.748-6-70.158-14.2-39.337-2.436-63.262-22.326-71.78-58.857z" fill="#f8d45c"/><path class="fil5 str1" d="M828.3 12.5c-59 25-118 43.6-177.3 56.589l20.277 2.842-55.963 28.819h20.276l-30 24.354 14.193 1.623-31.63 27.196h11.355l-27.172 24.354 15.816 1.623-31.63 23.137 10.138 2.841-31.632 24.355 3.965 23.785c3.244-10.148 11.85-14 27.667-10.797 40.958 6.494 103.4 11.93 119.45 7.697 14.5-3.824 23.891-15.99 1.273-24.735-36.497-12.584-74-28.829-74.898-37.759 1.216-9.335 7.515-8.495 9.158-12.173 19.526.759 66.42-31.378 71.137-49.524 32.329.424 66.913-22.324 101.789-63.727 23.5-13.352 33.183-32.898 33.732-50.5zM135.984 134.033c60.424 10.554 120.848 8.93 182-4 38.525-2.435 63.669 6 76.24 28.413 2.838 19 15.4 30 38.525 34.5-20.276 38.965-5.677 53.984 24.332 58.855L445.726 263.2c-42.986-2-67.723-20.33-67.318-56-20.165 3.59-34.468 0-50.284-8.524-20 5.75-41.29 2.683-56.295-6.247-28.388-.811-53.53-4.463-70.158-14.2-22.3 0-59.958-16.5-65.77-44zm318.343 78.339c2.433-15 15-21.918 38.93-19.889 12.167 2 25.139.951 38.116-7.167 5.677 35.313-27.519 19.893-38.874 40.187-8.922-8.93-21.95-13.131-38.172-13.131z"/><path class="str4" d="M766.53 57.175c2 0 4 3.247 4 6.9 0 3.653-2 6.495-4 6.495s-3.65-2.842-3.65-6.495 1.623-6.9 3.65-6.9zm-36 29.63c3.244 0 6 3.248 6 6.9 0 3.653-2.838 6.9-6 6.9-3.244 0-5.678-3.247-5.678-6.9 0-3.653 2.434-6.9 5.678-6.9zm-30.415 3.653c2.433 0 4.461 2.436 4.461 5.277 0 2.842-2 5.278-4.46 5.278-2.434 0-4.462-2.436-4.462-5.278 0-2.841 2-5.277 4.461-5.277zm-19 23.543c2 0 3.651 2.842 3.651 6.495s-1.623 6.494-3.65 6.494c-2 0-3.244-2.84-3.244-6.494 0-3.653 1.217-6.495 3.243-6.495zm-5.676-32c2.838 0 5.271 2.436 5.271 5.682 0 3.247-2.433 5.683-5.271 5.683-2.84 0-4.867-2.436-4.867-5.683 0-3.246 2-5.682 4.867-5.682zm-15.411 22.73c2.84 0 4.866 2.841 4.866 6 0 3.247-2 5.683-4.866 5.683-2.838 0-4.866-2.436-4.866-5.683 0-3.248 2-6 4.866-6zm-10.137 25.166c-1.218-1.624-5.678 1.218-9.734 5.683-4.46 4.464-6.488 8.93-4.866 10.553 1.622 1.217 6-1.218 10.139-5.683 4-4.464 6-9.335 4.46-10.553z" fill="#e6e7e8"/><path class="fil3 str1" d="M665.613 70.124c-38.12-4.464-68.94 10.149-93.272 45-12.166 27.195-26.36 51.145-40.96 70.222m-39.741 39.372 29.198 27.195h-19l4.126 12.679m38.525 10.146-14 5.846m-65.146-2.9-12.4 1.12m17.772-47.585c6.489-.812 10.949 2 12.977 6.9m-10.139 21.92-16.224-8.272"/><path class="fil0 str3" d="M109.276 1041.37c3.65-.811 7.3 2 8.11 5.276.4 3.653-2 7.713-5.676 8.119-3.65.4-6.894-2-7.3-5.684-.81-2.84 1.217-7.3 4.866-7.711zm-13.382-1.624c3.245-.4 7.3 2.842 8.11 6 .812 3.247-2.839 6.9-5.677 7.713-3.65.811-6.894-2-7.7-5.278-.4-3.653 1.623-7.711 5.273-8.524zm-4 14.613c3.245-.812 7.3 2 7.7 5.682.812 3.653-2 6.495-5.272 7.3-3.65.812-7.3-1.623-7.7-5.276-.812-3.653 1.621-6.9 5.27-7.713zm13.788.811c3.65-.811 7.3 2 8.11 5.683.4 3.247-2.432 7.3-5.677 7.712-3.65.812-6.894-2-7.7-4.871-.811-3.653 1.622-8.118 5.272-8.524zm30.821-38.154c2.838 0 5.678 2.841 5.678 5.682 0 2.842-2.84 5.277-5.678 5.277-2.84 0-5.272-2.435-5.272-5.277 0-2.84 2.433-5.682 5.272-5.682zm-10.543-2.842c2.838 0 5.677 2.842 5.677 5.683 0 2.84-2.84 5.276-5.678 5.276-2.839 0-5.272-2.435-5.272-5.276 0-2.841 2.433-5.683 5.272-5.683zm-5.273 10.554c2.84 0 5.678 2.84 5.678 5.682 0 2.842-2.839 5.278-5.678 5.278-2.838 0-5.271-2.436-5.271-5.278 0-2.841 2.433-5.682 5.271-5.682zm10.95 2.84c2.838 0 5.678 2.842 5.678 5.684 0 2.84-2.84 5.276-5.678 5.276-2.84 0-5.272-2.435-5.272-5.276 0-2.842 2.433-5.683 5.272-5.683zm768.888 13.8c-3.65-.81-7.3 2-8.11 5.277-.4 3.653 2 7.712 5.677 8.119 3.65.4 6.894-2 7.3-5.684.81-2.84-1.217-7.3-4.867-7.711zm13.382-1.623c-3.243-.4-7.3 2.841-8.11 6-.81 3.247 2.839 6.9 5.677 7.712 3.65.812 6.894-2 7.7-5.277.4-3.653-1.622-7.711-5.273-8.524zm4 14.612c-3.245-.811-7.3 2-7.7 5.683-.81 3.653 2 6.494 5.272 7.3 3.65.812 7.3-1.623 7.7-5.276.812-3.654-1.621-6.9-5.27-7.713zm-13.788.812c-3.65-.812-7.3 2-8.11 5.683-.4 3.247 2.432 7.3 5.677 7.712 3.65.812 6.894-2 7.7-4.871.81-3.653-1.623-8.118-5.273-8.524zm-30.821-38.155c-2.838 0-5.677 2.842-5.677 5.683 0 2.841 2.839 5.277 5.677 5.277 2.84 0 5.272-2.436 5.272-5.277 0-2.84-2.433-5.683-5.272-5.683zm10.545-2.841c-2.84 0-5.678 2.841-5.678 5.683 0 2.84 2.838 5.276 5.678 5.276 2.838 0 5.271-2.435 5.271-5.276 0-2.842-2.433-5.683-5.271-5.683zm5.271 10.554c-2.838 0-5.678 2.84-5.678 5.682 0 2.842 2.84 5.277 5.678 5.277 2.84 0 5.272-2.435 5.272-5.277s-2.433-5.682-5.272-5.682zm-10.949 2.84c-2.84 0-5.677 2.842-5.677 5.684 0 2.84 2.838 5.276 5.677 5.276 2.838 0 5.271-2.436 5.271-5.276 0-2.842-2.433-5.684-5.27-5.684z"/><path class="fil7 str0" d="M427.815 1123c-50.285-12.582-99-40-142.814-83l-20 25c-38.931-18.672-65.261-51.293-90-100l-10 35-35-5c50.287 81.584 107.6 136 170.462 165.264l16.238-29.115c27.171 20.296 59.2 31.254 93.273 38.56l-17 11.366c-12.977-.4-21.492 5.277-25.548 17-13.382-.811-23.926 3.247-33.66 9.742-10.138-5.277-21-8.119-32.442-4-11.76-5.276-23.115-6.9-35.687-5.682-4-15.424-13.382-27.196-36.497-30l-12.977-14.2c-6.489-24.355-19-34.9-39.337-33.691h-22.71l-11.355 8.119c-4.46 27.6 1.217 46.272 21.494 53.984.811 13.8 9.732 23.542 26.765 30 6 14.613 15.816 19.484 26.765 21.1l17 8.523c8.515 20.7 21.898 26.385 39.336 22.732 15 15.424 23.116 13.8 30 10.147l6.894-15.83c17.843 16.642 32 19.89 42.175 10.147l5.678-12.988c27.17 6 48.664 0 59.612-22.73 25.549 5.682 38.932-4.466 37.715-32.474 13.382-7.3 18.25-23.542 18.25-42.619l-46.637-35.314zm144.37 0c50.285-12.582 99-35 142.817-78l17.773 22.828c38.932-18.672 67.488-54.12 92.227-102.829l10 35h35c-50.289 81.586-107.6 131-170.46 160.265L685.002 1130c-27.171 20.295-60.9 32.4-94.975 39.7l17 11.366c12.977-.4 21.493 5.277 25.549 17 13.381-.812 23.926 3.246 33.659 9.741 10.138-5.277 21-8.119 32.442-4 11.76-5.276 23.116-6.9 35.687-5.682 4-15.424 13.382-27.196 36.497-30l12.977-14.2c6.49-24.354 19-34.9 39.337-33.69h22.71l11.355 8.118c4.461 27.6-1.216 46.272-21.493 53.985-.812 13.8-9.733 23.541-26.765 30-6 14.612-15.817 19.483-26.765 21.1l-17 8.522c-8.516 20.7-21.9 26.385-39.337 22.732-15 15.424-23.115 13.8-30 10.147l-6.894-15.83c-17.844 16.642-32 19.89-42.176 10.148l-5.678-12.989c-27.17 6-48.663 0-59.612-22.73-25.549 5.682-38.932-4.466-37.715-32.474-13.382-7.3-18.248-23.541-18.248-42.619l46.636-35.313z"/><g id="_198376048"><path id="_200374992" class="fil8 str1" d="M420 1132.5h-10v14.99l10 .01z"/><path id="_198345256" class="fil8 str1" d="M420 1127.5h15v25.02l-15-.02z"/><path id="_382322336" class="fil8 str1" d="M454.941 1117.5H435v45h19.994z"/><path id="_312738464" class="fil8 str1" d="M454.927 1107.5H480v65h-25z"/><path id="_315948664" class="fil8 str1" d="M580.2 1132.4h10v14.95l-10.029.05z"/><path id="_315946624" class="fil8 str1" d="M580.2 1127.4h-15v25h15z"/><path id="_198345592" class="fil8 str1" d="M545.235 1117.4H565.2v45h-20.018z"/><path id="_198345496" class="fil8 str1" d="M545.249 1107.4H520.2v65l25-.05z"/></g><path class="fil9 str1" d="M733.88 667.84c6.489 25.166 11.121 54.559 11.121 82.16 0 149.372-109 275.344-242 275.344-34.875 0-75.988-10.571-107.215-26.4 23.926-60.48 59.744-114.592 108.4-140.164 34.876-13.395 62.452-47.491 83.54-95.793 31.226-57.638 80.472-90.275 146.169-95.145zM699.199 589.863c-44.2-70.221-121.737-112.997-199.194-112.997-59.613 0-119.321 23.29-162.712 67.533 15.4 22.325 37.968 42 63.111 56.267 26.765 17.86 49 47.897 68.941 84.427 23.52 53.986 46.23 67.38 69.345 41.4 32.443-81.18 83.864-132.573 160.51-136.632z"/><path class="fil7 str1" d="M330.922 949c-46.23-49.926-75.921-125.655-75.921-198.718 0-47.896 13.13-99.464 33.812-139.649 59.2 25.166 94.655 54.816 97 83.635 19.466 36.937 42.988 61.697 67.725 84.428 19 16.641 16.626 32.472-6.894 47.896-25.954 12.177-47.853 32.472-64 61.29-7.7 19.89-27.4 42.447-51.736 61.118z"/><path class="fil5 str4" d="m318.873 831.578-13.383 1.218-10.949 16.236 13.382 2.436 4.461 11.77 14.195-18.671-7.7-12.99zm41.365 0 13.381 1.218 10.95 16.236-13.383 2.436-4.46 11.77-14.194-18.671 7.7-12.99zm-36-101.881-17.843 10.147-3.245-26.384 21 16.237zm37.715 0 17.842 10.147 3.245-26.384-21 16.237zm-54.342 79.15c36.499-31.254 73.8-43.431 112.332-45.46 7.7 4 6 9.742-4.866 17-40.96 13.395-65.29 14.2-72.59 4.87L307.61 808.8zm66.913 1.218c-32-30-66.1-43-102.194-47-7.7 2.842-6.489 8.524 3.65 15.424 37.3 14.2 60 16.237 67.318 8.524l31.226 23.137z"/><path class="fil3 str0" d="M891.788 1115.46c-26.36-7.3-41.77-20.7-50.692-39.372-9.327 4.464-15 20.295-17.438 45.867 8.111 2.435 16.222 2 24.332-.813l10.544 8.12"/><path class="fil0" d="M639.8 749.761h33.63l10.439-32.061 10.378 32.061h33.627l-27.222 19.938L711 801.819 683.869 782l-27.285 19.819 10.376-32.12z"/><path class="fil0 str0" d="M500 1104.75c8.516 2.435 17-2.84 25.143-25.57 15 17.859 29.198 23.947 43.392 17.452 15.4 8.93 27.171 4.871 36.9-12.177-18.25 8.118-30.415 4.871-38.526-10.147l8.921-17.86 28.388-10.959c34.876 14.2 55.963 3.653 64.479-31.255l30.416-20.7c31.226-10.96 50.285-30 41.77-65.757l11.76-22.324c31.63-15.425 39.336-39.373 23.926-70.221l4.46-26.79c27.172-23.542 27.983-48.7 2.84-75.497l-.812-24.355c18.655-30.848 19.871-56.826-14.598-71.844l-4.461-23.949c11.354-31.254 1.621-53.173-29.198-65.756l-17-17c-1.623-36.125-15-59.667-55.558-55.6l-21-13.395c-11.355-25.165-30.821-33.69-57.181-32l-14.193 31.661c19.87 23.542 40.958 34 66.5 16.236l21.492 12.583c0 29.63 15.4 45.46 44.6 46.678l16.222 23.542c-7.3 27.196 2.838 47.491 28.791 60.886l4.461 20.7c-15 23.948-13.382 46.272 13.383 67.38v27.195c-23.521 22.325-23.926 45.461-1.216 69l-6 30.443c-30 9.335-32.443 32.878-21.493 62.915l-9.732 19.888c-29.2 5.684-43.392 25.166-42.176 59.262l-24.737 20.7c-28.793-10.553-46.23 3.247-57.18 29.63l-29.199 10.148-17.843-13.8c.4-7.3 3.65-11.77 10.95-14.2l32.848-14.612c-7.7-14.2-20.277-19-38.932-14.2-21.492.811-34.47 9.335-37.3 26.79-5.272-9.742-12.9-12.989-23.115-12.989-10.21 0-17.843 3.247-23.115 12.989-2.839-17.455-15.817-25.979-37.3-26.79-18.655-4.871-31.226 0-38.932 14.2l32.849 14.612c7.3 2.436 10.544 6.9 10.949 14.2l-17.843 13.8-29.2-10.148c-10.948-26.383-28.386-40.183-57.179-29.63l-24.737-20.7c1.217-34-12.977-53.578-42.176-59.262l-9.732-19.888c10.949-30 8.516-53.58-21.493-62.915l-6-30.443c22.71-23.542 22.3-46.679-1.216-69v-27.195c26.765-21.1 28.388-43.432 13.383-67.38l4.46-20.7c25.954-13.395 36-33.69 28.793-60.886l16.22-23.542c29.2-1.217 44.6-17 44.6-46.678l21.493-12.583c25.549 17.86 46.637 7.3 66.5-16.236l-14.193-31.66c-26.36-1.625-45.825 6.9-57.18 32l-21 13.394c-40.554-4-53.936 19.484-55.559 55.6l-17 17c-30.82 12.583-40.553 34.5-29.198 65.756l-4.46 23.95c-34.47 15-33.253 40.995-14.6 71.843l-.81 24.355c-25.144 26.79-24.332 51.955 2.839 75.497l4.46 26.79c-15.4 30.848-7.7 54.796 23.927 70.221l11.76 22.324c-8.516 35.72 10.543 54.797 41.77 65.757l30.414 20.7c8.517 34.9 29.6 45.462 64.48 31.255l28.388 10.959 8.92 17.86c-8.11 15-20.275 18.265-38.525 10.147 9.733 17 21.494 21.1 36.9 12.177 14.194 6.495 28.387.4 43.392-17.453 8.11 22.73 16.627 28 25.143 25.571M310.595 501.581c6.894-5.683 15-8.524 17.438-6 2.433 2.84-1.622 10.147-8.516 16.235-6.894 6-14.193 8.93-16.626 6-2.433-2.435.81-9.741 7.7-16.235zm81.918-49.115c8.516-2.84 17-2.435 18.25.813 1.216 3.653-5.273 8.929-13.789 12.177-8.922 2.84-16.628 2.84-17.844-.813-1.217-3.247 4.46-8.929 13.383-12.177zm-138.692 125.83c5.272-6.9 12.572-11.77 15.411-10.148 3.243 2 .81 9.742-4 17.454-4.866 7.3-11.355 11.771-14.598 9.742-2.84-1.624-1.623-9.335 3.243-17zm-21.899 78.745c4.868 0 8.11 7.712 7.3 16.642-.811 8.93-5.677 16.235-10.544 16.235-4.867 0-8.11-7.3-7.3-16.235.812-8.93 5.678-16.642 10.544-16.642zm-4.866 98.228c4.866 0 8.517 7.713 8.517 16.642-.4 8.93-4.867 16.236-9.733 16.236-4.867 0-8.516-7.3-8.111-16.236 0-8.93 4.46-16.642 9.327-16.642zm7.7 94.576c4 0 10.139 8.524 12.977 18.67 3.244 10.148 2.433 18.266-1.622 18.266-4 0-9.327-8.117-12.572-18.265-2.839-10.147-2.839-18.671 1.217-18.671zm38.525 88c4.461-.813 14.194 5.682 20.683 15 6.894 8.93 8.515 17 4 17.86-4.867 1.217-13.382-5.277-20.276-14.2-6.895-9.336-9.328-17.454-4.461-18.672zm77 72.25c4-2.842 15 .812 24.332 8.118 8.921 7.3 12.977 15 8.921 17.86-4.461 2.841-14.598-.812-23.926-8.118-8.922-7.3-13.788-15.424-9.327-17.86zM690.116 501.5c-6.894-5.683-15-8.524-17.438-6-2.433 2.84 1.622 10.147 8.516 16.235 6.894 6 14.193 8.93 16.627 6 2.433-2.435-.81-9.741-7.7-16.235zm-81.918-49.115c-8.515-2.84-17-2.435-18.249.813-1.216 3.653 5.273 8.929 13.788 12.177 8.922 2.84 16.628 2.84 17.845-.813 1.216-3.247-4.461-8.929-13.384-12.177zm138.692 125.83c-5.272-6.9-12.571-11.77-15.41-10.148-3.244 2-.81 9.742 4 17.454 4.866 7.3 11.355 11.771 14.598 9.742 2.84-1.624 1.623-9.335-3.243-17zm21.9 78.745c-4.868 0-8.111 7.712-7.3 16.642.81 8.93 5.677 16.236 10.543 16.236 4.867 0 8.11-7.3 7.3-16.236-.811-8.93-5.678-16.642-10.544-16.642zm4.865 98.228c-4.866 0-8.517 7.713-8.517 16.642.4 8.93 4.868 16.236 9.734 16.236s8.516-7.3 8.11-16.236c0-8.93-4.46-16.642-9.327-16.642zm-7.7 94.576c-4 0-10.138 8.524-12.976 18.67-3.245 10.149-2.433 18.266 1.621 18.266 4 0 9.327-8.117 12.572-18.265 2.84-10.147 2.84-18.671-1.217-18.671zm-38.525 88c-4.46-.813-14.193 5.682-20.682 15-6.894 8.93-8.516 17-4 17.86 4.866 1.217 13.382-5.277 20.276-14.2 6.894-9.336 9.327-17.454 4.46-18.672zm-77 72.25c-4-2.842-15 .812-24.332 8.118-8.92 7.3-12.977 15-8.92 17.86 4.46 2.841 14.598-.812 23.925-8.118 8.922-7.3 13.788-15.424 9.327-17.86z"/><path class="fil0 str0" d="m479.472 1051.73-.933-30c8.11-10.147 19.98-4.87 24.44 3.653.4 8.524-8 17-23.5 26.384zm33.241 6.9-.4 30c-.152 11.432-18 5.597-20.681-3.653-2.342-8.2 5.677-17 21-26.384z"/><path class="fil7 str0" d="M153.266 844.528v-53.172c8.92-2 15.815-6.495 19.466-13.8 2-6.9 6.488-10.96 13.382-12.177 14.193-2.436 23.926-9.336 27.981-20.7-9.732 3.248-18.654 5.277-27.981 2-9.733.4-17.438 4.464-21.493 15.424-4 8.524-8.11 9.741-12.166 2.84-2.838-7.3-7.3-8.117-8.922.4-4.866 4.465-10.138 2-15.815-6.9 16.626-1.217 25.953-8.524 33.659-17 6.488-10.96 9.327-23.136 6.894-38.154-5.273-12.99-11.76-23.137-24.738-28v-17.86c6.489-8.93 6.489-14.2 0-15v-16.641c6.489-10.96 6.489-16.642 0-18.672v-19.483c3.244-9.741 4.46-16.643-2.433-16.643-8.516-15.424-14.599-14.612-18.248 3.248l.4 9.742c-5.678 8.93-6 15.424.4 17.86l.4 14.612c-4.868 9.336-4.868 15.83.4 18.671l.4 15.83c-6 10.554-5.678 15.424.4 16.237l.4 6c-15 1.218-26.765 7.711-33.66 18.67-8.515 17-8.922 32.473.4 46.274 3.65 6.494 7.3 11.771 12.572 15.83-9.732 2.436-18.249 1.623-25.548-2.841 6.894 13.8 17 21.919 29.6 25.166-10.95 12.177-14.6 25.572-9.734 39.778-2.433 16.237.812 28.819 7.3 39.778 1.217 12.989 5.677 18.672 10.95 21.513 2 12.989 5.272 17.86 9.326 18.266 5.678 11.366 11.355 17 17 18.266 6.894 8.93 13.382 14.612 19.871 16.641 5.271 3.653 10.544 7.3 15.816 11.366 5.677 4.465 11.354 5.682 17 4.871 6.49 1.623 10.544.4 13.789-2.842-2-5.682-6.488-10.553-13.382-12.988l6.487-11.366 3.245-14.2c.811-6.9-1.217-12.584-5.678-16.237 2.433-6.493 2-14.2-.4-22.73-2.433-4-8.11-8.93-24.738-10.96-7.7 2.436-15-15.424-22.7-10.96zm-37.715-63.32c8.517 9.742 18.25 10.148 27.981 10.148v46.678c-5.27-.4-9.327-4-12.165-9.741-2.84-6.9-8.516-11.771-15.4-12.989 1.217-7.3 0-15-3.65-21.513l3.244-12.583zm10.139-51.55c4.46 0 8.11 3.654 8.11 8.118 0 4.465-3.65 7.713-8.11 7.713-4.461 0-7.7-3.248-7.7-7.713 0-4.464 3.244-8.117 7.7-8.117zm22.71-17.454c4.46 0 8.11 3.653 8.11 8.12 0 4.464-3.65 7.71-8.11 7.71-4.461 0-7.7-3.246-7.7-7.71 0-4.467 3.244-8.12 7.7-8.12zm-18.656-23.948c4.461 0 8.111 3.653 8.111 8.118 0 4.466-3.65 7.713-8.11 7.713-4.46 0-7.7-3.247-7.7-7.713 0-4.465 3.244-8.118 7.7-8.118zm-23.925 21.1c4.46 0 8.11 3.653 8.11 8.118 0 4.464-3.65 7.711-8.11 7.711-4.461 0-7.7-3.247-7.7-7.711 0-4.465 3.244-8.118 7.7-8.118z"/><path class="fil3 str0" d="M860.2 1208.46c-27.576 33.283-59.2 60.478-92.867 85.239M834.248 1172.74c-11.76 12.989-23.115 16.642-34 14.613l2.84-18.266M556.458 1188.57l-9.732-19.57M783.151 1234l2.433-19.86M642.43 1256.36l23.116-3.25M554.836 1232.81c-18.25 48.3-10.139 70.628 39.337 54.391M950.635 993.331c-.4 11.366-8.922 9.742-19.466 5.682-10.949-7.711-17.843-17.453-22.7-27.6"/><path class="fil3 str0" d="M935.63 980.748c-6 .4-10.544 4-12.165 11.772M746.652 386.1c-30.415-30.443-67.44-46.9-109.899-56-31.356-6.725-55.8-6.579-66.912 13.8-11 20.186-2.772 39.711 18.248 42.214 13.838 1.646 21.494-8.524 16.628-23.95-5.678 12.178-14.928 17.364-23.522 8.93-12.396-12.162-3.55-33.312 17.439-31.253 20.662 2 32.441 19.888 20.276 46.273-11.355 20.7-32.18 20.896-54.341 8.118-15.322-8.835-19.954-26.64-16.222-45.867 1.982-10.2 9.893-18.612 21.654-28.354M582.413 1233.63c6.488-9.335 19.87-9.335 40.552-1.624-28.792-5.682-49.88-16.642-54.746-41.4 15.816-2.435 30.82 2.842 44.6 15.425-11.356-10.96-13.789-19.89-6-25.166"/><path class="fil3 str0" d="M588 1219.82c-17.438 0-32.443-6-42.58-29.63 10.137-2 19.465-2 28.387 0-6-7.3-8.922-14.613-7.7-21.92l27.981 2M440.311 980.977c13.788 10.554 22.598 33.124 20.442 62.686-1.921 26.36-15.844 42.416-28.82 52.157"/><path class="fil3 str0" d="M444.442 1022.66c2 17.454-2.576 35-12.3 53.325M475 1079.69c5.82-15.523 3.8-24 3.477-40.446-.28-13.87-.538-23.152-2-33.567M502.715 1024.98l-11.429 58.3M512.66 1059.9l7.987-23.46M563.946 980.127c-13.788 10.554-20.186 33.974-18 63.536 1.922 26.359 10.82 43.884 23.797 53.626"/><path class="fil3 str0" d="M555.558 1022.66c-2 17.454 2.3 34.6 12 52.866M525.143 1079.18c-6-23.948-5.272-48.7-2-71.439M318.411 831.376l52.314-98.227M359.775 830.565l-45.42-97.416M479.813 306.951l10.543 41.402M461.158 312.228l12.977 41.403M159 541.563c4 21.1-7.7 30.848-12.572 46.272M37.377 634.515c-60.359 125.864 111.447 207.3 76.24 335.68-10.953 39.939-41.364 48.3-69.346 47"/><path class="fil3 str0" d="M52.812 993.331c.961 26.972 31.5-4.43 39.223-20.525"/><path class="fil3 str0" d="M67.298 981.737c6 .4 8.193 1.413 12.66 8.124M112.8 1115.51c26.36-7.3 41.77-20.7 50.692-39.373 9.327 4.465 15 20.296 17.438 45.867-8.111 2.435-16.222 2-24.332-.812l-10.544 8.118"/><path class="fil3 str0" d="M156.199 1120.78c9.327-12.989 8.516-22.324-4-27.6M143.222 1208.46c27.575 33.283 59.2 60.478 92.867 85.239M251.498 1086.69l65.201 44.46M299.764 1159.86 250 1085l15-20M141.194 836.247l13.788 7.306M144 912.963c-4.46-9.742-4-20.7-.4-32.472M132.272 829.753c-4.866 2.84-6 7.711-5.271 16.235M98.613 815.141l6.082-15.424M106.318 854.1c-2-10.553-1.623-17.453 1.622-20.7M117.267 876.838c-2-8.524-.81-15.425 2.433-19M127 895.5l2.434-13.386M169.58 854.1c-7.3 0-12.165 2.435-16.221 8.93M153.765 843.553c-7.7-.811-12.166.4-15 4.466M115.645 781.451c4-8.119 2.433-14.2-6.894-5.683M103 753.85c8.11-2.435 17-1.218 25.143 4M143.627 656l-19.871 10.987M143.627 641.415l-19.871 10.959M143.222 623.96l-18.249 13.395M142.41 605.696 124.161 619M142.815 588.241l-18.248 13.395M140.789 570.382l-18.25 13.395M144 674.698c-6-2.435-12.977-3.247-20.276-2M56.438 657.245c17 2 26.551-3.65 26.36-17.86-.213-15.849-10.346-23.71-27.172-17.86-21.94 7.626-28.452 26.235-15 43.838 13.242 17.33 34.591 18.2 55.153 4.87 22.126-14.34 28.842-40.377 8.516-62.914-21.95-24.34-50.286-20.749-75.834-2.89M173.231 1119.97c14.598 20.295 30 32.472 44.6 32"/><path class="fil3 str0" d="M145.655 1129.31c19 18.266 37.714 25.978 53.53 17.86M169.175 1172.74c11.76 12.989 23.115 16.642 34 14.613l-2.838-18.266"/><path class="fil3 str0" d="M193.912 1215.36c1.623-12.584 1.623-21.513-.81-28m0 0c10.543 18.672 21.899 30.85 38.93 28.414 2.84-12.584-2.433-24.354-16.626-35.72 16.221 19.89 34.47 25.165 53.124 17.454"/><path class="fil3 str0" d="M238.116 1243.77c8.11 4.466 16.221 3.248 24.332-3.653-4.867-10.553-15-19-28.793-27.195m0 0c14.193 12.582 29.198 15.424 44.6 6.9-8.516-6-12.165-13.8-12.165-21.919"/><path class="fil3 str0" d="m304.218 1204.81 8.11 12.989c-15 7.711-26.766 8.117-34.47 1.217m0 0c10.949 6 17.843 13.8 20.276 23.948-12.977 7.713-24.332 6.495-36-3.246l15.4 24.76M327.332 1243.77c19.872 2.435 32.849-3.247 39.337-17.86-8.921-5.275-17.438-6.493-27.17-3.653"/><path class="fil3 str0" d="M367.39 1198.12c2.84 9.742 1.713 18.454-6.8 25.354m0 0c9.733-14.2 23.115-19 40.553-16.236-1.621 19-14.598 27.195-38.93 25.977l21.898 2.842c1.622 10.553-3.244 17.86-14.194 21.919"/><path class="fil3 str0" d="M421 1233.63c-6.488-9.335-19.87-9.335-40.553-1.624 28.793-5.682 49.88-16.642 54.747-41.4-15.816-2.435-30.82 2.842-44.6 15.425 11.356-10.96 13.789-19.89 6-25.166"/><path class="fil3 str0" d="M415.333 1219.82c17.438 0 32.443-6 42.581-29.63-10.138-2-19.466-2-28.386 0 6-7.3 8.92-14.613 7.7-21.92l-27.982 2M446.965 1188.57l9.732-19.57M190.263 1150.82c7.7 20.7 21 32 42.581 31.66l-5.272-19M163 1143.51c6.894 13.395 7.7 26.385 4.866 40.185M220.272 1234l-2.433-19.86M288.4 1247c12.165 14.2 28.793 16.642 49.88 6.9l-43.381-17.874s36.487-2.827 44.598-13.787l-3.65-15M360.992 1256.36l-23.115-3.25M448.587 1232.81c18.25 48.3 10.139 70.628-39.337 54.391M199.996 887.391c0-7.713-3.65-14.613-13.788-19.89-12.167-4.87-21.494-2.435-27.982 5.684-6.894 18.67-2.84 37.343 6 56.826M96.18 761.968c10.543-1.624 18.654-.4 25.953 3.653 5.678 7.3 12.167 11.771 17.844 12.989M195.129 754.661c-10.544 0-18.248 2.435-24.737 7.713-4.461 8.117-10.139 13.8-15.816 15.829M633.51 1198.72c-2.84 9.742.81 17.86 9.327 24.76m0 0c-9.733-14.2-23.115-19-40.553-16.236 1.622 19 14.598 27.195 38.93 25.977l-21.899 2.842c-1.621 10.553 3.245 17.86 14.195 21.919"/><path class="fil3 str0" d="M676 1243.77c-19.87 2.435-32.848-3.247-39.337-17.86 8.922-5.275 17.438-6.493 27.172-3.653"/><path class="fil3 str0" d="M715 1247c-12.166 14.2-28.793 16.642-49.88 6.9 10.138-11.77 24.331-17.86 42.58-18.672m0 0c-21 2.842-35.686-2-43.797-12.989l3.65-15"/><path class="fil3 str0" d="m699.2 1204.81-8.11 12.989c15 7.711 26.764 8.117 34.47 1.217m0 0c-10.949 6-17.843 13.8-20.276 23.948 12.977 7.713 24.33 6.495 36-3.246l-15.411 24.76"/><path class="fil3 str0" d="M765.3 1243.77c-8.11 4.466-16.221 3.248-24.332-3.653 4.866-10.553 15-19 28.793-27.195m0 0c-14.193 12.582-29.198 15.424-44.6 6.9 8.516-6 12.165-13.8 12.165-21.919"/><path class="fil3 str0" d="M809.5 1215.36c-1.622-12.584-1.622-21.513.811-28m0 0c-10.543 18.672-21.898 30.85-38.93 28.414-2.84-12.584 2.433-24.354 16.627-35.72-16.222 19.89-34.471 25.165-53.125 17.454"/><path class="fil3 str0" d="M813.16 1150.82c-7.7 20.7-21 32-42.581 31.66l5.271-19M840.33 1143.51c-6.894 13.395-7.7 26.385-4.866 40.185"/><path class="fil3 str0" d="M857.768 1129.31c-19 18.266-37.715 25.978-53.53 17.86"/><path class="fil3 str0" d="M830.192 1119.97c-14.598 20.295-30 32.472-44.6 32M847.224 1120.78c-9.327-12.989-8.516-22.324 4-27.6M841.658 543.137c-4 21.1 10.433 29.274 15.299 44.698M966 634.515c58.56 122.1-112.834 227.643-76.239 335.68 13.286 39.223 41.363 48.3 69.345 47"/><path class="fil3 str0" d="M946.985 657.245c-17 2-26.55-3.65-26.36-17.86.213-15.848 10.344-23.71 27.171-17.86 21.94 7.627 28.453 26.235 15 43.838-13.24 17.33-34.59 18.2-55.152 4.87-22.126-14.34-28.842-40.377-8.516-62.914 21.95-24.34 48.798-18.4 74.347-.543M542.265 312.228l-12.977 41.403M523.61 306.951 513 348.353M732.774 1067.83 750 1090l-50.476 70.26M750 1090l-65 40M256.771 386.1c30.415-30.443 67.441-46.9 109.898-56 31.356-6.724 55.8-6.579 66.913 13.8 11 20.187 2.773 39.7-18.25 42.214-13.838 1.647-21.492-8.524-16.626-23.95 5.678 12.178 13.384 15.426 23.52 8.93 10.545-13.8 3.388-33.296-17.437-31.253-20.825 2-33.257 20.284-20.276 46.273 10.549 21.118 32.182 20.896 54.342 8.118 15.32-8.834 19.954-26.64 16.22-45.867-1.982-10.211-9.326-19-21-28.82"/><path class="fil5" d="m763.888 1080.39 4.3-4.3c.97-.97 1.781-1.636 2.441-1.997a5.472 5.472 0 0 1 2.833-.683c1 0 2 .284 3 .773.999.494 2 1.285 3.139 2.38.958.96 1.667 1.9 2.122 2.844.558 1.138.83 2.241.81 3.31 0 .8-.25 1.668-.722 2.587-.353.685-.966 1.462-1.84 2.335l-4.427 4.433-11.663-11.673zm4.329-.381 7.722 7.73 1.757-1.759c.657-.658 1-1.168 1.315-1.538.284-.476.442-.954.466-1.435 0-.482-.148-1-.51-1.745-.364-.68-.997-1.476-1.898-2.378-.9-.9-1.674-1.512-2.314-1.838-.643-.323-1.243-.478-1.797-.462-.56 0-1.1.199-1.64.544-.4.253-1 .862-2 1.823l-1 1zm19.1.269-11.664-11.673 8.646-8.654 1.975 1.976-6.292 6.297 2.584 2.587 5.855-5.86 1.964 1.966-5.855 5.86 3.174 3.177 6.515-6.52 1.965 1.968-8.867 8.876zm20.618-20.638-2.236 2.237-8.426-8.433c0 1.584-.447 3.111-1.191 4.585l-2-2c.39-.772.665-1.769.817-2.987.149-1.22 0-2.313-.462-3.278l1.814-1.816 11.712 11.723zm-1-11.561c-.823.334-1.58.418-2.267.252-.69-.163-1.29-.5-1.798-1-.87-.869-1.288-1.892-1.246-3 0-1.176.619-2.326 1.737-3.446 1.1-1.1 2.255-1.686 3.433-1.73 1.182 0 2.2.368 3 1.237.54.541.88 1.164 1 1.871.14.7 0 1.421-.218 2.152.9-.388 1.775-.5 2.613-.336.832.16 1.577.568 2.229 1.22 1 1 1.61 2.297 1.596 3.659 0 1.36-.589 2.611-1.73 3.753-1 1-2.22 1.668-3.483 1.818-1.494.174-2.811-.313-3.957-1.46-.63-.63-1-1.366-1.268-2.2-.214-.84-.128-1.742.26-2.7zm-1.79-2.716c.446.447.919.669 1.418.664.5 0 .962-.213 1.382-.634.424-.424.638-.888.641-1.396 0-.5-.22-.982-.665-1.428-.421-.42-.88-.63-1.385-.631-.5 0-.961.2-1.377.624-.429.428-.643.898-.646 1.4 0 .5.211.972.633 1.393zm4.788 5.2c.616.617 1.254.94 1.914.97.66 0 1.225-.193 1.698-.665.462-.463.679-1 .65-1.645 0-.633-.357-1.264-.985-1.891-.545-.547-1.14-.832-1.778-.857-.638 0-1.194.2-1.667.675-.546.546-.763 1.143-.654 1.786.1.646.383 1.187.822 1.627zm6-11.56c-.822.335-1.58.419-2.268.253-.69-.162-1.29-.5-1.797-1-.87-.87-1.287-1.892-1.247-3 0-1.177.62-2.326 1.738-3.446 1.1-1.1 2.255-1.685 3.432-1.73 1.182 0 2.2.368 3 1.238.541.54.88 1.163 1 1.87.14.7 0 1.421-.217 2.152.9-.388 1.775-.5 2.612-.336.833.16 1.577.568 2.23 1.22 1 1 1.61 2.297 1.596 3.659 0 1.36-.59 2.611-1.73 3.753-1 1-2.22 1.668-3.483 1.818-1.494.174-2.811-.313-3.957-1.46-.63-.63-1-1.366-1.269-2.2-.213-.84-.127-1.742.261-2.7zm-1.79-2.715c.446.447.918.669 1.418.664.5 0 .961-.212 1.382-.634.424-.424.638-.888.641-1.396 0-.5-.22-.982-.665-1.428-.422-.42-.88-.63-1.385-.63-.5 0-.962.2-1.378.622-.428.43-.642.9-.646 1.4 0 .5.212.972.634 1.393zm4.788 5.2c.616.617 1.254.94 1.914.97.66 0 1.225-.192 1.697-.666.462-.462.68-1 .65-1.644 0-.633-.357-1.264-.984-1.891-.546-.547-1.14-.832-1.779-.856-.637 0-1.194.2-1.666.674-.546.546-.763 1.143-.655 1.786.1.646.383 1.187.823 1.627zm7.788-6 1.925-2.4c.495.385.959.573 1.392.563.435 0 .834-.199 1.2-.566.461-.462.64-1 .54-1.812 0-.751-.771-1.838-2-3.268 0 1.218-.286 2.248-1.127 3-.918.919-2 1.356-3.438 1.316-1.373 0-2.629-.631-3.764-1.767-1.183-1.185-1.783-2.492-1.8-3.923 0-1.423.511-2.684 1.597-3.772 1.185-1.185 2.613-1.696 4.289-1.541 1.672.158 3.556 1.283 5.65 3.379 2.134 2.136 3.275 4 3.43 5.8.151 1.735-.4 3.237-1.673 4.5-.913.913-1.89 1.4-2.938 1.483-1 0-2.134-.288-3.259-1zm.176-9.955c-.722-.723-1.447-1.117-2.175-1.182-.73 0-1.314.119-1.749.554-.412.413-.594.92-.54 1.52 0 .6.45 1.272 1.194 2 .753.753 1.457 1.157 2.1 1.211.649 0 1.198-.138 1.643-.583.43-.43.625-.963.578-1.596 0-.636-.396-1.282-1-1.94zM601.552 1148.16l.438 2.887-8.498 2.116c0-1.114 0-2.216.36-3.3.311-1 1-2.612 2.135-4.565.897-1.575 1.431-2.628 1.6-3.153.235-.726.3-1.4.211-2-.1-.691-.33-1.187-.678-1.487-.347-.3-.776-.387-1.288-.259a1.67 1.67 0 0 0-1.119.886c-.237.465-.313 1.158-.223 2l-2.462.293c-.114-1.746.15-3 .796-4 .648-.933 1.54-1.543 2.68-1.826 1.248-.312 2.293-.122 3.136.56.843.687 1.363 1.67 1.557 2.954a6.966 6.966 0 0 1 0 2.159c-.1.71-.323 1.482-.654 2.312-.223.553-.648 1.375-1.275 2.463-.628 1-1 1.81-1.182 2.155a6.492 6.492 0 0 0-.367.984l4.814-1.199zm3.6 1.997-2.424.6-1.776-11.7c-.724 1.285-1.648 2.33-2.772 3.135l-.428-2.818c.59-.422 1.2-1 1.833-2a6.72 6.72 0 0 0 1.132-2.977l1.967-.489 2.468 16.275zm5.578-18.29 4.57-1.677c1-.38 1.837-.567 2.424-.564.787 0 1.52.266 2.193.778.674.5 1.261 1.22 1.759 2.132.496.918.911 2.117 1.245 3.6.291 1.3.416 2.478.374 3.518a7.934 7.934 0 0 1-.7 3.288c-.31.7-.8 1.338-1.472 1.912-.5.429-1.213.81-2.14 1.15l-4.7 1.728-3.55-15.87zm3.1 1.769 2.352 10.5 1.866-.685c.697-.256 1.19-.49 1.479-.7.375-.278.664-.62.862-1 .2-.4.3-1 .312-1.774 0-.771-.123-1.774-.397-3-.275-1.227-.572-2.133-.886-2.73-.316-.595-.668-1-1-1.276-.388-.258-.83-.363-1.326-.32-.372 0-1 .227-2 .6l-1.122.412zm12.723 9.661-3.981-15.7 9-3.783.673 2.659-6.6 2.752.882 3.48 6.151-2.561.67 2.643-6.15 2.562 1 4.273 6.843-2.85.671 2.647-9.316 3.88zm16.464-6.783-4.617-15.413 2.364-1.162 8 7.87-3-10.292 2.257-1.11 4.617 15.412-2.44 1.2-7.858-7.667 3 10-2.257 1.11zm9-13.548c-.493-1.562-.724-2.963-.694-4.21 0-.918.176-1.813.45-2.676.277-.86.646-1.586 1.11-2.174.618-.793 1.412-1.435 2.385-1.94 1.76-.912 3.388-.941 4.886 0 1.498.85 2.64 2.523 3.426 5 .78 2.474.862 4.677.255 6.618-.6 1.936-1.792 3.36-3.544 4.267-1.777.92-3.4.957-4.894.114-1.487-.847-2.613-2.49-3.38-4.924zm2.45-1.39c.546 1.732 1.275 2.885 2.18 3.457.9.57 1.84.6 2.8.1.96-.497 1.6-1.348 1.947-2.558.336-1.2.225-2.696-.335-4.47-.553-1.754-1.265-2.9-2.137-3.463-.873-.551-1.8-.569-2.8 0-.995.515-1.657 1.37-1.992 2.557-.33 1.187-.222 2.661.335 4.425zm16.437.286-9.787-12.253 2.537-1.586 7.1 9.153-1.344-12.756 2.48-1.55 1.5 17.43-2.496 1.562zm7.8-4.818-5.444-14.962 8.655-5.174.921 2.534-6.299 3.764 1.2 3.317 5.862-3.5.917 2.519-5.862 3.5 1.482 4 6.521-3.897.919 2.522-8.88 5.3zm10.872-6.49-5.85-14.71 3.47-2.265 6 8.675-1.93-11.379 3.477-2.27 5.848 14.71-2.151 1.4-4.6-11.579 2.324 13-2.232 1.457-6.875-10 4.6 11.58-2.152 1.4zm7.171-23.853 4.548-3c.9-.613 1.592-1 2-1.227.481-.2.96-.275 1.436-.2.476 0 .933.275 1.377.625.443.347.796.838 1 1.466.283.682.4 1.4.352 2.172 0 .767-.265 1.46-.637 2 .799-.214 1.517-.137 2.145.231.633.371 1.122.977 1.472 1.82.274.66.423 1.387.442 2.18 0 .787-.1 1.514-.363 2.17a4.504 4.504 0 0 1-1.254 1.742c-.36.312-1.27.976-2.729 1.987l-3.873 2.639-6-14.578zm3.3.86 1.398 3.371 1.5-1c.895-.61 1.444-1 1.647-1.188.368-.325.6-.7.711-1.15.1-.442 0-.9-.137-1.37-.186-.452-.434-.753-.744-.9-.313-.15-.672-.122-1 0-.24.121-.9.55-1.983 1.286l-1.318.898zm2.4 5.797 1.616 3.896 2.125-1.446c.829-.565 1.342-.95 1.539-1.163.3-.31.5-.696.594-1.149 0-.455 0-.942-.191-1.459-.182-.437-.42-.75-.711-.943a1.295 1.295 0 0 0-.996-.18c-.37 0-1 .47-2.123 1.181l-1.853 1.263zm11.344 0-6.246-14.44 4.79-3.4c1.2-.857 2.135-1.346 2.793-1.474.656-.129 1.294 0 1.9.45.616.432 1.1 1 1.475 1.927.469 1 .6 2.158.417 3.216-.192 1-.743 2-1.654 2.915.653 0 1.234.134 1.745.348.51.212 1.278.687 2.3 1.424l2.596 1.839-2.72 1.932-3-1.974c-1-.7-1.776-1.13-2.117-1.27-.341-.14-.655-.176-.945-.116-.288 0-.692.281-1.216.653l-.46.326 2.6 6-2.277 1.618zm-1.328-9.952 1.682-1.195c1-.775 1.748-1.317 1.97-1.629.22-.3.343-.665.373-1 0-.398 0-.813-.237-1.247-.212-.487-.482-.8-.814-.96-.332-.155-.7-.141-1.1 0-.197.1-.758.477-1.682 1.132l-1.773 1.26 1.584 3.662zm7.43-3.711c-.656-1.459-1-2.8-1.143-4 0-.913 0-1.825.155-2.73.18-.9.467-1.685.863-2.35.525-.895 1.242-1.674 2.151-2.347 1.644-1.216 3.253-1.536 4.828-.958 1.576.574 2.888 2 3.937 4.354 1 2.31 1.363 4.477.97 6.5-.393 2-1.4 3.647-3 4.858-1.659 1.228-3.27 1.555-4.833.985-1.564-.574-2.859-2-3.883-4.273zm2.276-1.813c.73 1.617 1.576 2.63 2.535 3 .96.4 1.889.272 2.787-.393.896-.663 1.448-1.622 1.65-2.881.2-1.253 0-2.7-.818-4.367-.737-1.637-1.569-2.651-2.491-3-.925-.39-1.85-.242-2.78.444-.929.69-1.492 1.652-1.694 2.888-.198 1.235 0 2.674.811 4.323zM281.27 1064l2.4 1.778-4.9 8.6c-.641 1.124-1.225 1.925-1.741 2.4-.685.618-1.47.942-2.357.966-.889 0-1.832-.333-2.836-1-1.178-.87-1.871-1.915-2-3.14-.2-1.219 0-2.558.925-4l2.44 1.382c-.416.8-.63 1.425-.642 1.875 0 .68.242 1.217.773 1.61.536.398 1 .5 1.44.318.42-.184.944-.826 1.573-1.928l5-8.78zm4.75 3.874 2.437 1.734-4 7.446c-.648 1.18-1 1.97-1.17 2.362-.2.636-.2 1.266 0 1.884.2.622.65 1.174 1.33 1.658.69.491 1.3.7 1.829.63.528 0 .956-.317 1.283-.734.33-.418.791-1.173 1.389-2.26l4.171-7.6 2.437 1.733-3.961 7.221c-.9 1.652-1.6 2.771-2.116 3.358-.5.589-1 .99-1.675 1.2-.61.216-1.29.253-2 .111-.746-.144-1.596-.558-2.552-1.237-1.153-.821-1.944-1.593-2.373-2.321-.429-.728-.681-1.457-.763-2.185 0-.73 0-1.4.154-2 .271-.9.83-2.12 1.675-3.66l4-7.332zm5 22.858 7.752-13.595 2.346 1.734-.29 12.694 5.175-9 2.24 1.657-7.751 13.595-2.422-1.79.246-12.424-5 8.865-2.24-1.657zm12.566 7.89 7.543-13.747 2.439 1.736-2.968 5.4 4.775 3.4 2.967-5.4 2.436 1.733-7.541 13.747-2.437-1.734 3.298-6-4.774-3.4-3.298 6-2.44-1.735zm14.9 1.2c.7-1.446 1.481-2.538 2.339-3.279a6.52 6.52 0 0 1 2.1-1.213c.767-.262 1.512-.348 2.229-.259.96.115 1.942.493 2.957 1.134 1.834 1.158 2.986 2.73 3.456 4.723.471 1.99.145 4.14-.978 6.448-1.115 2.29-2.534 3.733-4.256 4.338-1.72.6-3.497.326-5.323-.828-1.85-1.168-3-2.742-3.478-4.716-.465-1.977-.148-4 .95-6.348zm2.634 1.537c-.78 1.6-1 3-.8 4.269.25 1.24.874 2.174 1.877 2.8 1 .63 2 .742 3 .322 1-.418 1.962-1.445 2.762-3 .79-1.624 1-3 .834-4.228-.238-1.195-.875-2.119-1.9-2.772-1-.655-2-.776-3-.368-1 .4-1.938 1.426-2.734 3zm18.924 1.857 4.76 2.529c1 .57 1.851 1 2.34 1.583a5.489 5.489 0 0 1 1.387 2.387c.276.933.363 1.945.261 3-.1 1-.438 2.32-1 3.699-.495 1.2-1 2.18-1.677 2.915-.758.896-1.572 1.519-2.443 1.859-.656.264-1.425.33-2.3.2-.659 0-1.47-.4-2.434-.914l-4.898-2.6 6-14.692zm1.586 3.87-3.983 9.728 1.943 1c.726.386 1.271.62 1.634.697.47.1.9 0 1.3 0 .398-.138.817-.495 1.263-1 .443-.564.9-1.416 1.367-2.552.464-1.135.73-2 .8-2.753 0-.7 0-1.3-.157-1.816a3.088 3.088 0 0 0-.924-1.332c-.325-.29-1-.711-2-1.276l-1.168-.62zm5.414 17.968 5.1-15.134 9.85 4.3-.863 2.562-7.168-3.135-1.13 3.356 6.67 2.916-.86 2.548-6.669-2.917-1.388 4.119 7.421 3.244-.86 2.552-10.1-4.418zm23.44 10-2.58-1 3.348-11a8.362 8.362 0 0 1-4 .92l.8-2.666c.745 0 1.622-.174 2.623-.563 1-.394 1.79-.999 2.366-1.82l2 .821-4.654 15.393zm8.44-6.232c-.597-.548-.978-1.16-1.14-1.828a4.151 4.151 0 0 1 0-2c.291-1.161.888-2 1.791-2.533.9-.525 2-.575 3.326-.147 1.3.425 2.214 1.136 2.74 2.128.528.993.646 2 .353 3.233-.18.723-.5 1.31-.982 1.768-.47.456-1 .736-1.714.839.672.591 1.12 1.288 1.348 2 .228.792.231 1.626 0 2.498-.363 1.44-1 2.476-2 3.113s-2.216.737-3.553.3c-1.246-.4-2.187-1.115-2.829-2.13-.756-1.2-.94-2.564-.555-4 .213-.842.592-1.554 1.136-2.142.544-.584 1.26-.94 2.146-1zm1.297-2.831c-.15.595-.12 1.1 0 1.534.213.431.562.725 1 .887.496.162.937.125 1.322-.114.38-.241.647-.657.797-1.251.142-.562.1-1-.1-1.49a1.721 1.721 0 0 0-1-.888c-.5-.165-.947-.125-1.332.115-.382.244-.645.645-.787 1.2zm-1.921 6.593c-.2.824-.185 1.526 0 2.1.254.581.657.96 1.211 1.142.543.176 1 .1 1.511-.226.465-.327.8-.9 1-1.745a3.79 3.79 0 0 0 0-1.937c-.25-.56-.652-.931-1.2-1.112-.64-.2-1.182-.112-1.62.287-.443.4-.735.896-.884 1.483zm8.124 3.4 2.617.531c-.115.762 0 1.396.2 1.9.246.512.622.856 1.123 1 .538.188 1 .111 1.547-.226.494-.337.845-.898 1-1.688.2-.748.184-1.4 0-1.96-.234-.563-.6-.93-1.114-1.1-.332-.118-.75-.184-1.256-.198l.937-2.319c.7.265 1.288.28 1.757 0 .47-.243.789-.668.954-1.282.14-.523.116-.985 0-1.392-.19-.4-.513-.687-.963-.843a1.454 1.454 0 0 0-1.282.134c-.411.238-.743.688-.991 1.339l-2.281-1.3c.42-.88.872-1.543 1.36-1.985.487-.441 1-.718 1.765-.829.691-.11 1.41 0 2.158.222 1.284.448 2.185 1.271 2.7 2.471.432.984.522 1.955.265 2.914-.365 1.36-1.3 2.22-2.833 2.573a3.634 3.634 0 0 1 1.526 1.934c.289.822.3 1.7 0 2.643-.365 1.36-1.112 2.367-2.243 3-1.127.653-2.343.755-3.642.3-1.233-.428-2.145-1.188-2.74-2.276-.594-1-.78-2.3-.56-3.66zm19.211 7.212-.657 2.788-9.237-2.819c.35-1 .883-1.93 1.6-2.721.72-.792 2-1.741 3.843-2.851 1.487-.896 2.416-1.53 2.789-1.897.5-.5.835-1 .977-1.67.157-.668.121-1.23-.111-1.687-.232-.458-.625-.769-1.183-.94-.55-.168-1-.111-1.444.165-.414.28-.75.85-1 1.7l-2.555-1.1c.546-1.6 1.315-2.638 2.3-3.1.996-.465 2.11-.512 3.35-.134 1.357.414 2.324 1.16 2.9 2.226.578 1 .721 2.225.43 3.465-.166.7-.435 1.34-.8 1.911-.371.57-.88 1.13-1.524 1.68-.429.365-1.162.856-2.196 1.472-1 .613-1.7 1-1.989 1.248-.287.217-.535.44-.736.666l5.234 1.598zM178.99 1037l-2 2-7.645-7.652a7.44 7.44 0 0 1 2.924-1.433c1-.273 2.828-.364 5.18-.279h3.672c.75-.151 1.346-.445 1.785-.886.486-.485.729-.988.729-1.514 0-.524-.23-1-.691-1.476-.456-.456-.954-.68-1.498-.677-.542 0-1.155.3-1.833.9l-1.956-2.393c1.331-1 2.598-1.527 3.8-1.368 1.2.162 2.321.753 3.346 1.78 1.124 1.124 1.7 2.312 1.739 3.559 0 1.248-.398 2.322-1.3 3.224-.51.512-1 .9-1.737 1.189-.647.28-1.423.474-2.326.583h-5.448c-.388 0-.741 0-1 .157l4.331 4.336zm8.842 8.849-2 2-7.647-7.654a7.457 7.457 0 0 1 2.925-1.432c1-.273 2.827-.363 5.18-.278h3.672c.75-.151 1.345-.445 1.786-.886.484-.485.729-.99.729-1.514 0-.526-.23-1-.692-1.478-.456-.455-.954-.679-1.497-.675-.543 0-1.155.3-1.833.9l-1.956-2.392c1.33-1 2.596-1.527 3.8-1.369 1.2.162 2.32.754 3.347 1.78 1.124 1.125 1.7 2.313 1.738 3.559 0 1.25-.398 2.323-1.298 3.224-.512.512-1 .9-1.739 1.188-.646.282-1.422.475-2.325.584h-5.448c-.39 0-.741 0-1 .156l4.333 4.336zm24.551 5.852 4.2 4.2c.946.946 1.595 1.74 1.948 2.384.471.864.693 1.788.665 2.766 0 .979-.275 1.957-.752 2.932-.482.977-1.254 1.998-2.321 3-.936.936-1.86 1.628-2.772 2-1.11.544-2.185.8-3.227.79-.787 0-1.626-.244-2.523-.7-.667-.343-1.424-.943-2.275-1.795l-4.321-4.325 11.378-11.39zm.372 4.227-7.535 7.543 1.714 1.715c.641.642 1.14 1 1.5 1.284.463.278.93.432 1.398.456.47 0 1-.146 1.7-.499.663-.355 1.439-.973 2.319-1.854.88-.88 1.473-1.634 1.79-2.258.317-.63.467-1.216.451-1.757 0-.545-.193-1-.53-1.6-.246-.395-.84-1-1.777-1.997l-1-1zm-.263 18.662 11.38-11.39 8.435 8.443-1.925 1.929-6.14-6.146-2.52 2.526 5.71 5.717-1.915 1.917-5.712-5.718-3 3.1 6.357 6.362-1.918 1.92-8.654-8.66z"/><path class="fil7 str0" d="M884.885 652.87c25.143.811 45 23.542 45 50.738 0 28.819-21.899 51.955-49 51.955-27.171 0-49-23.136-49-51.955 0-23.137 15-44.244 35.687-50.738l2-8.93c-2.838-4-2.433-11.365-.4-19.484-3.244-1.623-2.84-7.711-.4-17.453-3.65-6.495-3.65-12.584-.4-18.266l-.4-8.93c5.271-14.612 10.949-15 17-2 4.461 5.277 4 12.177 0 21.512 6 3.248 5.678 8.93 0 18.266 5.272 4.871 5.272 11.771 0 19v16.237z"/><path class="fil7 str0" fill-rule="evenodd" d="M864.859 766.829c11.355 0 20.682 19.89 20.682 44.243 0 24.354-9.327 43.838-20.682 43.838-11.354 0-20.276-19.484-20.276-43.838 0-24.353 8.922-44.243 20.276-44.243zm.76 122.111-35.23-32.4 2-22.325-9.732-.4v-11.772l8.516-1.218 1.623-15.424-6-.4 2-15 5.678.4 2.839-10.148-6.489-2.842 5.272-12.582 5.272 1.218 12.166-11.771h52.719c3.244 8.929 4.9 16 4 25.82 12.165 4.464 10 11 .28 19.548 11.623 39.924-27.945 71-44.98 89.325z"/><path class="fil3 str0" d="m867.447 645.1 15.816-8.118m-15.4-12.177 15.4-6m-15.816-10.96 16.221-8.117m-17.437-10.96 17.844-9.741m-19 74.686 19-.4M888.825 867.336l-5.677-14.207M895.314 860l-9.733-12.147M900.18 851.911l-12.98-10.147M904.641 842.982l-12.978-7.713M907.885 833.645l-14.599-5.682M909.5 824.716l-12.969-3.247M910.319 816.192l-13.383-1.218M910.724 807.262l-12.977 1.624M909.5 776.414l-11.753 7.306M910.724 768.7l-13.383 5.278M909.1 761.395l-12.569 6.088M888.83 814.36l-6.899.208-.811 37.343v18.672l6.37 3.247"/><path class="fil3 str0" d="M881.725 793.667c3.65-13.8 6.288-21.313 1.827-35.113l8.922-3.248c11.72 43.683 7.45 72.17-9.843 94"/><path class="fil7 str0" d="m888.83 814.36-6.899.208-.811 37.343v18.672c30.311 15.277 3.026 44.938-11.394 52.924 9.732-20.7-1.593-36.675-28.358-37.893 5.755-8.588 17.558-20.13 27.532-17.875l-.4-43.837-27.171 13.8v-15l43.154-21.849c7.979-7.144 11.037 12.975 4.347 13.507zM880.84 666.128c27.17 0 49 21.919 49 48.7 0 26.79-21.899 48.7-49 48.7-27.171 0-49-21.919-49-48.7 0-26.789 21.899-48.7 49-48.7z"/><path class="fil0 str0" d="M901 686.54c5.272 0 9.327 4 9.327 9.335 0 5.278-4 9.336-9.327 9.336-5.271 0-9.327-4-9.327-9.336 0-5.277 4-9.335 9.327-9.335zm-1.217 32.878c5.273 0 9.328 4 9.328 9.336 0 5.276-4 9.335-9.328 9.335-5.27 0-9.327-4-9.327-9.335 0-5.277 4-9.336 9.327-9.336zm-26.36 10.554c5.273 0 9.329 4 9.329 9.335 0 5.277-4 9.335-9.328 9.335-5.272 0-9.328-4-9.328-9.335 0-5.277 4-9.335 9.328-9.335zm-25.548-19.484c4.867 0 8.517 3.653 8.517 8.524 0 4.871-3.65 8.524-8.517 8.524-4.866 0-8.516-3.653-8.516-8.524 0-4.87 3.65-8.524 8.516-8.524zm12.572-29.225c5.272 0 9.327 4 9.327 9.335 0 5.278-4 9.337-9.327 9.337-5.271 0-9.327-4-9.327-9.337 0-5.276 4-9.335 9.327-9.335zm17 23.948c4.866 0 9.327 4.466 9.327 9.337 0 4.87-4.461 8.929-9.327 8.929s-8.922-4-8.922-8.93c0-4.87 4-9.336 8.922-9.336z"/><path class="fil8 str1" d="M205 932.587c2.838 0 5.271 3.653 5.271 8.119 0 4.464-2.433 7.711-5.271 7.711-2.84 0-5.272-3.247-5.272-7.711 0-4.466 2.433-8.119 5.272-8.119zm-12.166-1.623c3.65 0 6.894 3.653 6.894 8.118 0 4.464-3.245 7.712-6.894 7.712-3.65 0-6.488-3.248-6.488-7.712 0-4.465 2.838-8.118 6.488-8.118zm-12.977-2.435c3.244 0 6 2.84 6 6.493 0 3.654-2.838 6.495-6 6.495-3.245 0-5.678-2.841-5.678-6.495 0-3.653 2.433-6.493 5.678-6.493zm-10.544-12.584c4.461 0 8.11 3.653 8.11 7.713 0 4-3.649 7.711-8.11 7.711-4.461 0-7.7-3.653-7.7-7.711 0-4 3.244-7.713 7.7-7.713zm16.626 0c3.65 0 6.895 3.653 6.895 7.713 0 4-3.245 7.711-6.895 7.711-3.65 0-6.487-3.653-6.487-7.711 0-4 2.838-7.713 6.487-7.713zm14.195-4.464c2.433 0 4.866 3.247 4.866 7.3 0 4-2.433 7.3-4.866 7.3-2.434 0-4.461-3.248-4.461-7.3 0-4 2-7.3 4.46-7.3zm.4-17.86c3.65 0 6.488 2.84 6.488 6.494 0 3.653-2.838 6-6.488 6-3.65 0-6-2.436-6-6 0-3.653 2.433-6.494 6-6.494zm-11.76 6c4.46 0 8.11 3.653 8.11 8.523 0 4.87-3.65 8.524-8.11 8.524-4.461 0-8.11-3.653-8.11-8.524 0-4.87 3.649-8.523 8.11-8.523zm-14.6 2c3.65 0 6.894 3.653 6.894 8.118 0 4.464-3.244 7.712-6.894 7.712s-6.894-3.248-6.894-7.712c0-4.465 3.244-8.118 6.894-8.118zm-13.788-4.464c4 0 7.7 3.653 7.7 8.117 0 4.465-3.65 7.712-7.7 7.712-4 0-7.3-3.247-7.3-7.712 0-4.464 3.245-8.117 7.3-8.117zm1.623-14.2c2.838 0 5.677 3.248 5.677 7.3 0 4-2.84 7.3-5.677 7.3-2.84 0-5.273-3.247-5.273-7.3 0-4 2.433-7.3 5.273-7.3zm15.815-1.623c3.65 0 6.489 4.87 6.489 10.553 0 5.682-2.84 10.553-6.49 10.553-3.649 0-6-4.87-6-10.553 0-5.682 2.434-10.553 6-10.553zm13.788-4c2.84 0 5.272 4 5.272 8.524 0 4.464-2.433 8.117-5.272 8.117-2.838 0-5.271-3.653-5.271-8.117 0-4.465 2.433-8.524 5.27-8.524zm-4.866-10.96c2.433 0 4.46 3.653 4.46 8.118 0 4.466-2 7.713-4.46 7.713-2.433 0-4.461-3.247-4.461-7.713 0-4.465 2-8.118 4.46-8.118zm-10.949-1.623c3.243 0 5.676 3.247 5.676 7.3 0 4-2.433 6.9-5.676 6.9-3.245 0-5.678-2.841-5.678-6.9 0-4 2.433-7.3 5.678-7.3zm-10.545 5.276c2.84 0 4.867 2.842 4.867 6.495s-2 6.494-4.867 6.494c-2.838 0-4.866-2.84-4.866-6.494 0-3.653 2-6.495 4.866-6.495z"/><circle class="fil2 str1" cx="500" cy="1140" r="38"/><circle class="fil2 str1" cx="500" cy="1140" r="14"/><path class="fil3 str1" d="M500 1154v24M500 1102v24M462 1140h24M514 1140h24M472.7 1167.25l17.3-17.11M527.154 1112.81 510 1130.2M472.846 1112.81l17.112 17.39M527.293 1167.25l-17.393-17.11"/><path id="_112527384" class="fil2 str1" d="m460.322 637.856 90.978 3.516s1.698-27.726-7.594-36.328c0 0-.82-17-10.945-23 0 0-1.656-14.626-16.153-16.34 0 0-6-6.939-16.22-7 0 0-18 5-21.49 8.385 0 0-18.154 15.235-21.588 21.25 0 0-12 2.494-7.815 11.18 4.143 8.55 18.751 3.5 17.914-1.641 0 0 13.71-1.671 19.85-6.78 0 0 0-5.14-6-5.993 0 0 6 2.613 6 5.992 0 3.516 0 0 0 0s13.634 8.745 23.989 1.9c0 0-10.768 7.247-23.989-1.9 2.97 2.183 0 0 0 0s-9.675 6.3-16.184 6.259l-10.753 40.575z"/><use xlink:href="#sol" x="500" y="440"/></svg>